<?xml version="1.0" encoding="UTF-8" standalone="no"?>
<svg
   xmlns:dc="http://purl.org/dc/elements/1.1/"
   xmlns:cc="http://creativecommons.org/ns#"
   xmlns:rdf="http://www.w3.org/1999/02/22-rdf-syntax-ns#"
   xmlns:svg="http://www.w3.org/2000/svg"
   xmlns="http://www.w3.org/2000/svg"
   xmlns:sodipodi="http://sodipodi.sourceforge.net/DTD/sodipodi-0.dtd"
   xmlns:inkscape="http://www.inkscape.org/namespaces/inkscape"
   width="512"
   height="512"
   viewBox="0 0 135.46666 135.46667"
   version="1.1"
   id="svg865"
   inkscape:version="1.0.2-2 (e86c870879, 2021-01-15)"
   sodipodi:docname="favicon.svg"
   inkscape:export-filename="D:\GIT\SBERFrontend2022\b8-dog-food\public\favicon.png"
   inkscape:export-xdpi="96"
   inkscape:export-ydpi="96">
  <defs
     id="defs859" />
  <sodipodi:namedview
     id="base"
     pagecolor="#ffffff"
     bordercolor="#666666"
     borderopacity="1.0"
     inkscape:pageopacity="1"
     inkscape:pageshadow="2"
     inkscape:zoom="7.9195959"
     inkscape:cx="500.18155"
     inkscape:cy="480.55071"
     inkscape:document-units="mm"
     inkscape:current-layer="layer1"
     inkscape:document-rotation="0"
     showgrid="false"
     units="px"
     inkscape:window-width="1500"
     inkscape:window-height="1040"
     inkscape:window-x="104"
     inkscape:window-y="0"
     inkscape:window-maximized="0" />
  <metadata
     id="metadata862">
    <rdf:RDF>
      <cc:Work
         rdf:about="">
        <dc:format>image/svg+xml</dc:format>
        <dc:type
           rdf:resource="http://purl.org/dc/dcmitype/StillImage" />
        <dc:title></dc:title>
      </cc:Work>
    </rdf:RDF>
  </metadata>
  <g
     inkscape:label="Слой 1"
     inkscape:groupmode="layer"
     id="layer1">
    <rect
       style="fill:#fed700;fill-opacity:1;fill-rule:evenodd;stroke:none;stroke-width:0.498829;stroke-miterlimit:4;stroke-dasharray:0.498829, 1.49649;stroke-dashoffset:0.498829;stroke-opacity:1"
       id="rect1464"
       width="135.46666"
       height="135.46666"
       x="0"
       y="0" />
    <path
       fill-rule="evenodd"
       clip-rule="evenodd"
       d="m 15.675053,93.053706 c -3.604041,5.3669 -5.9074937,8.216854 -4.949683,15.434734 0.689445,5.18271 3.476724,10.06776 7.844669,12.93732 4.783197,3.1457 10.929654,3.69019 16.069314,1.04205 5.543178,-2.85972 7.063147,-6.10143 9.25691,-11.6152 l 50.817014,0.007 c 2.246652,5.61563 3.735272,8.78089 9.395963,11.67783 10.32441,5.28267 23.12658,-2.60705 23.88265,-15.1683 0.18803,-3.11829 -0.29761,-6.18952 -1.5787,-9.039464 -1.49253,-3.323965 -2.72654,-3.772514 -4.43257,-6.267928 2.325,-5.039765 3.12607,-9.225588 0.64998,-14.518017 -4.30918,-9.213815 -16.24366,-11.125502 -22.838667,-2.85187 -1.476856,1.85098 -1.406351,4.469729 -2.352415,6.667468 -0.908845,2.113418 -1.978303,3.711732 -3.261263,5.580402 10.171625,1.621792 3.537438,-4.624596 9.599665,-10.537917 4.32682,-4.21714 10.34597,-3.4376 14.1165,1.077289 5.82525,6.976915 -0.77957,12.89031 -0.72084,15.199613 0.0467,1.899991 7.07882,4.7911 6.91431,13.687544 -0.22949,12.31643 -14.91176,18.56674 -22.72313,8.83974 -8.093417,-10.07761 8.32456,-8.63409 -32.267933,-8.63409 H 48.896553 c -2.180053,0 -7.827043,-0.92249 -8.587023,1.64341 -0.949981,3.20448 -0.901016,4.32877 -3.157461,7.10624 -7.893618,9.72107 -22.740706,3.12416 -22.631022,-9.3823 0.02369,-2.7187 0.803081,-5.51179 2.317164,-7.770234 1.376985,-2.05271 4.632374,-3.935085 3.304366,-6.072042 -1.7178,-2.76177 -2.924369,-3.15354 -3.214264,-7.016076 -0.736453,-9.811041 10.063899,-14.960517 16.545284,-8.569256 5.654823,5.576483 -0.906886,12.212642 9.913077,10.424364 -1.292755,-1.837091 -2.605097,-3.637213 -3.318069,-5.725164 -0.877503,-2.565967 -1.13997,-4.420871 -2.859732,-6.577374 -3.163331,-3.964473 -8.334329,-5.997643 -13.323188,-4.873343 -10.465433,2.360309 -13.63268,14.416223 -8.21095,23.29313 z"
       fill="#222327"
       id="path2"
       style="stroke-width:1.95871" />
    <path
       fill-rule="evenodd"
       clip-rule="evenodd"
       d="m 71.449371,55.213174 c 5.788021,-1.390662 8.483222,5.756672 2.679529,7.235576 -5.925125,1.508147 -8.961146,-5.729282 -2.679529,-7.235576 z m -2.812725,30.497315 0.111639,-0.09179 c 0.695367,0.230974 2.103656,4.798865 7.108198,6.150362 6.530355,1.764812 14.083189,-1.811816 18.020206,-7.915171 1.128219,-1.751114 4.650003,-8.018967 1.661003,-9.258827 -2.614894,-1.083211 -3.649105,5.004525 -5.302254,7.482247 -1.774612,2.657985 -4.853716,4.718614 -7.934779,5.443307 C 71.80193,89.992561 70.679583,80.919768 70.77555,72.908575 76.011212,71.339649 81.677781,64.578162 81.333053,58.866499 80.906048,51.795566 71.053699,49.617446 65.440002,50.724125 c -7.400035,1.461211 -11.581906,6.491201 -7.77611,13.979371 4.289592,8.430353 8.947425,6.781104 9.158967,9.233433 0.763904,8.814202 -4.39145,18.601904 -15.283881,12.089155 -2.622725,-1.568924 -4.414956,-3.878227 -5.721421,-6.620459 -0.485786,-1.01851 -1.239875,-3.950702 -1.668828,-4.411023 -1.232036,-1.314261 -3.421882,-0.309447 -3.35137,1.68841 0.186114,5.274883 5.974095,12.030443 10.723983,13.99114 6.542129,2.703068 13.838359,2.056639 17.115289,-4.961438 z M 81.066685,45.494026 c -1.50625,-3.500229 -2.963538,-6.982837 -0.624822,-10.74158 2.154599,-3.46114 6.281618,-3.58455 9.333305,-1.208619 6.389341,4.969361 6.381499,17.322951 -1.684506,16.784306 4.42084,-1.437669 5.750804,-6.099432 3.670639,-10.181392 l -4.765557,3.611866 1.5846,-6.136671 c -5.615638,-1.394583 -7.644885,3.114383 -7.513646,7.870166 z m 2.487572,-17.614853 c -14.63163,2.977278 -7.799625,29.124276 6.589129,26.57208 14.572864,-2.585511 7.887778,-29.517969 -6.589129,-26.57208 z M 52.101141,43.247354 47.50599,39.670799 c -1.349559,1.416127 -1.465127,4.10935 -0.901016,5.917246 0.671825,2.152653 1.527801,2.730461 3.192713,3.903768 -8.12477,-0.672196 -6.941699,-11.147118 -2.24665,-15.983225 2.409221,-2.479794 6.287485,-3.44737 9.143303,-1.051897 3.069312,2.569963 2.324995,6.89874 1.54151,10.234398 -1.28296,-2.134961 -0.961727,-4.818412 -4.84587,-5.631265 -4.322898,-0.903022 -2.38964,0.857863 -1.288839,6.18753 z M 51.405774,26.991919 c -15.199664,2.51496 -15.135021,29.087039 0.04886,26.619089 15.144815,-2.4641 15.076256,-29.120425 -0.04886,-26.619089 z M 78.941448,14.604963 c -2.182005,0.352533 -2.491487,2.924362 -1.091002,3.856737 1.420071,0.944108 5.010402,-1.047937 8.788776,4.575519 0.92842,1.382886 1.320177,3.56493 3.222088,3.327885 5.216075,-0.649985 -3.067347,-13.025475 -10.919862,-11.760141 z m -24.715118,0.04664 c -3.357246,0.483788 -6.111205,2.569837 -8.054256,5.268939 -4.740096,6.598917 0.0097,7.560645 1.353473,5.566712 1.835324,-2.722614 2.802931,-5.729282 6.628307,-6.571526 1.586566,-0.348682 4.469805,0.481938 4.328777,-2.330874 -0.117561,-2.315204 -2.579639,-2.174175 -4.258263,-1.931297 z"
       fill="#222327"
       id="path4"
       style="stroke-width:1.95871" />
  </g>
</svg>
